# xmcd CD database file generated by OrangeCD 5.1
#
# Track frame offsets:
#	150
#	22710
#	41046
#	60793
#	83839
#	107741
#	130088
#	148407
#	165981
#	186551
#	209099
#	225813
#	244496
#	260268
#	283395
#	298806
#	313935
#	332334
#
# Disc length: 4677 seconds
#
# Revision: 2
# Processed by: cddbd v1.4PL0 Copyright (c) Steve Scherf et al.
# Submitted via: OrangeCD 5.1
#
DISCID=0a124312
DTITLE=Hopkins, Lightnin' - Complete Prestige/Bluesville Recordings - Disc 1
DYEAR=1900
DGENRE=Blues
TTITLE0=Rocky Mountain
TTITLE1=Got To Move Your Baby
TTITLE2=So Sorry To Leave You
TTITLE3=Take A Trip With Me
TTITLE4=Last Night Blues
TTITLE5=Lightnin's Stroke
TTITLE6=Hard To Love A Woman
TTITLE7=Conversation Blues
TTITLE8=Automobile Blues
TTITLE9=You Better Watch Yourself
TTITLE10=Mean Old Frisco
TTITLE11=Shinin' Moon
TTITLE12=Come Back Baby
TTITLE13=Thinkin' 'Bout An Old Friend
TTITLE14=The Walkin' Blues
TTITLE15=Back To New Orleans
TTITLE16=Katie Mae
TTITLE17=Down There Baby
EXTD=
EXTT0=
EXTT1=
EXTT2=
EXTT3=
EXTT4=
EXTT5=
EXTT6=
EXTT7=
EXTT8=
EXTT9=
EXTT10=
EXTT11=
EXTT12=
EXTT13=
EXTT14=
EXTT15=
EXTT16=
EXTT17=
PLAYORDER=
